HIERARCHY
ROOT Hips
{
	OFFSET	0.00	0.00	0.00
	CHANNELS 6 Xposition Yposition Zposition Zrotation Xrotation Yrotation
	JOINT LeftHip
	{
		OFFSET	 3.430000	 0.000000	 0.000000
		CHANNELS 3 Zrotation Xrotation Yrotation
		JOINT LeftKnee
		{
			OFFSET	 0.000000	-18.469999	 0.000000
			CHANNELS 3 Zrotation Xrotation Yrotation
			JOINT LeftAnkle
			{
				OFFSET	 0.000000	-17.950001	 0.000000
				CHANNELS 3 Zrotation Xrotation Yrotation
				End Site 
				{
					OFFSET	 0.000000	-3.119996	 0.000000
				}
			}
		}
	}
	JOINT RightHip
	{
		OFFSET	-3.430000	 0.000000	 0.000000
		CHANNELS 3 Zrotation Xrotation Yrotation
		JOINT RightKnee
		{
			OFFSET	 0.000000	-18.809999	 0.000000
			CHANNELS 3 Zrotation Xrotation Yrotation
			JOINT RightAnkle
			{
				OFFSET	 0.000000	-17.570000	 0.000000
				CHANNELS 3 Zrotation Xrotation Yrotation
				End Site 
				{
					OFFSET	 0.000000	-3.250000	 0.000000
				}
			}
		}
	}
	JOINT Chest
	{
		OFFSET	 0.000000	 4.570000	 0.000000
		CHANNELS 3 Zrotation Xrotation Yrotation
		JOINT LeftCollar
		{
			OFFSET	 1.060000	 15.330000	 1.760000
			CHANNELS 3 Zrotation Xrotation Yrotation
			JOINT LeftShoulder
			{
				OFFSET	 5.810000	 0.000000	 0.000000
				CHANNELS 3 Zrotation Xrotation Yrotation
				JOINT LeftElbow
				{
					OFFSET	 0.000000	-12.080000	 0.000000
					CHANNELS 3 Zrotation Xrotation Yrotation
					JOINT LeftWrist
					{
						OFFSET	 0.000000	-9.820000	 0.000000
						CHANNELS 3 Zrotation Xrotation Yrotation
						End Site 
						{
							OFFSET	 0.000000	-7.369996	 0.000000
						}
					}
				}
			}
		}
		JOINT RightCollar
		{
			OFFSET	-1.060000	 15.330000	 1.760000
			CHANNELS 3 Zrotation Xrotation Yrotation
			JOINT RightShoulder
			{
				OFFSET	-6.060000	 0.000000	 0.000000
				CHANNELS 3 Zrotation Xrotation Yrotation
				JOINT RightElbow
				{
					OFFSET	 0.000000	-11.900000	 0.000000
					CHANNELS 3 Zrotation Xrotation Yrotation
					JOINT RightWrist
					{
						OFFSET	 0.000000	-9.520000	 0.000000
						CHANNELS 3 Zrotation Xrotation Yrotation
						End Site 
						{
							OFFSET	 0.000000	-7.140012	 0.000000
						}
					}
				}
			}
		}
		JOINT Neck
		{
			OFFSET	 0.000000	 17.620001	 0.000000
			CHANNELS 3 Zrotation Xrotation Yrotation
			JOINT Head
			{
				OFFSET	 0.000000	 5.190000	 0.000000
				CHANNELS 3 Zrotation Xrotation Yrotation
				End Site 
				{
					OFFSET	 0.000000	 4.140008	 0.000000
				}
			}
		}
	}
}

MOTION
Frames: 23
Frame Time: 0.033333
4.4047 4.7914 -53.4366 0.278872 -16.3886 12.6378 21.2819 -2.02974 8.31695 -2.02989 30.5193 4.84735 -13.3749 18.3272 0.459298 -9.99553 -0.176979 -19.5449 -4.31781 32.0998 2.94905 6.11076 3.13991 8.45048 11.4645 24.9396 -10.7759 0 0 0 124.636 -22.2742 118.093 -34.406 -40.0767 -16.7844 -8.5762 -16.5674 -9.83417 0 0 0 -140.349 -16.5368 -92.293 29.6489 -49.5395 18.1144 -11.0107 -21.1679 10.7401 0 0 0 -15.0433 2.29614 31.8778 
3.6388 4.1737 -53.2307 0.567619 -16.1277 16.2443 21.4367 -3.56769 9.3592 -2.23 32.7529 5.09477 -12.571 14.5469 -0.875157 -10.2219 -1.68396 -16.4187 -4.41009 30.5444 3.40958 5.56338 3.07138 9.22026 12.5593 24.3188 -10.325 0 0 0 121.213 -20.5498 121.009 -48.6239 -47.7727 -27.4256 -8.19573 -17.0034 -9.43683 0 0 0 -138.154 -13.9105 -95.1921 44.6726 -57.1108 31.8772 -11.8514 -20.5159 11.8391 0 0 0 -15.3664 6.15736 32.9482 
2.7624 3.1943 -52.9545 1.19913 -15.7691 20.2834 21.529 -5.39922 9.00549 -2.76739 35.3421 5.09375 -12.4379 9.06167 -2.29141 -10.6354 -2.88558 -13.8626 -4.35586 30.7407 3.58227 6.12915 1.1664 9.78055 13.2415 23.045 -9.57255 0 0 0 118.197 -18.5281 123.3 -65.4902 -52.6579 -40.6026 -7.47261 -18.0792 -8.48824 0 0 0 -135.945 -10.7546 -97.3361 64.2248 -61.702 49.6371 -13.3111 -20.2453 13.343 0 0 0 -14.8742 9.54867 33.4901 
1.6072 1.8307 -52.6506 2.74215 -15.6322 24.8133 20.7222 -7.29287 7.22445 -3.34857 38.363 4.75523 -12.8506 2.73985 -2.99653 -11.2233 -3.54428 -12.063 -4.38774 32.7433 3.67092 6.7723 -3.06342 10.0636 12.7387 21.4912 -8.10339 0 0 0 116.006 -16.5862 124.882 -82.8109 -54.5155 -55.0981 -6.40845 -19.1142 -7.90106 0 0 0 -133.62 -7.40851 -99.0252 81.502 -62.5449 65.368 -15.2686 -20.5007 14.6841 0 0 0 -13.1645 11.4708 33.6828 
0.4897 0.4646 -52.3693 4.40168 -15.6624 28.9043 19.6442 -8.43086 4.83234 -3.71724 40.9831 4.50337 -12.8029 -3.43989 -3.27481 -11.9192 -3.49549 -10.8789 -4.44596 35.7022 3.69789 7.78025 -7.62735 10.4035 12.0194 21.0162 -6.79857 0 0 0 115.042 -14.1187 127.08 -95.4761 -53.7183 -66.043 -5.65025 -19.3238 -7.63731 0 0 0 -132.656 -4.76435 -99.98 91.2441 -62.3644 74.2238 -17.2422 -21.2865 15.5521 0 0 0 -11.0979 11.3433 33.3798 
-0.7357 -0.8362 -52.0504 6.70382 -15.9286 32.951 18.2034 -8.78277 1.75003 -3.66228 42.8158 4.0197 -12.4173 -9.15102 -3.23714 -12.8071 -2.40156 -10.549 -4.49954 38.8967 3.92011 9.18421 -12.3088 10.5191 10.7058 21.3574 -5.51251 0 0 0 114.925 -11.9045 128.327 -102.701 -52.1177 -72.618 -4.65014 -20.5509 -7.21582 0 0 0 -132.034 -2.7297 -101.158 96.0208 -62.196 78.5706 -19.8548 -22.3215 16.4418 0 0 0 -8.54032 9.31332 32.9459 
-2.3128 -1.8984 -51.636 9.81934 -16.075 37.3961 16.6718 -8.85397 -1.80481 -3.63171 43.6847 3.84012 -13.2318 -13.3483 -4.36093 -14.0013 -0.312561 -12.2967 -4.74803 41.1363 4.53823 10.3165 -16.6189 10.4967 8.49378 22.2862 -3.87851 0 0 0 116.273 -10.9475 127.678 -100.789 -51.5936 -72.1687 -4.03153 -22.3278 -7.51774 0 0 0 -132.387 -1.86118 -102.99 87.64 -62.5502 71.6103 -20.8612 -22.2959 17.3778 0 0 0 -5.90367 5.83255 32.7139 
-3.9099 -2.4559 -51.1815 12.6251 -15.5905 41.666 15.6581 -9.24009 -4.82637 -3.56499 42.6948 3.58664 -14.4231 -13.9411 -4.78568 -14.7589 1.48998 -14.76 -4.87435 42.4258 5.09049 10.8821 -20.6302 9.89489 5.71309 23.167 -1.66195 0 0 0 119.009 -11.4561 126.14 -91.2335 -51.6519 -65.8305 -3.89277 -23.6649 -8.45779 0 0 0 -133.635 -1.60457 -104.042 68.2791 -61.3634 54.9597 -21.1372 -22.8175 18.0284 0 0 0 -3.37492 2.12901 32.5509 
-5.5949 -2.6116 -50.6918 14.917 -14.6736 46.0927 14.7394 -10.2124 -7.37355 -3.57529 40.7786 3.42555 -15.0797 -11.8231 -4.33994 -14.9472 3.06163 -17.9856 -4.77744 42.5087 5.21141 11.0609 -23.1731 9.2045 2.89185 24.0147 0.330618 0 0 0 122.368 -13.0154 123.842 -75.9086 -50.4513 -55.2415 -4.09726 -25.4071 -10.8765 0 0 0 -134.955 -2.34827 -104.358 45.5815 -55.8134 35.1717 -21.1423 -23.5153 18.0653 0 0 0 -1.16023 -1.33967 32.465 
-7.2799 -2.1018 -50.2071 16.383 -13.5995 50.2053 14.0239 -11.1869 -8.2441 -3.15587 38.5612 3.69027 -15.3051 -7.81195 -4.06418 -14.4984 4.41054 -21.194 -4.43912 40.8642 4.9492 10.3241 -22.5359 8.5651 0.46588 25.003 1.9681 0 0 0 125.835 -15.4848 120.031 -57.5648 -47.2211 -42.4935 -4.57761 -27.3162 -14.2836 0 0 0 -135.845 -4.78259 -103.892 28.9123 -46.6671 20.4899 -21.2041 -23.7507 16.3922 0 0 0 0.465877 -4.42507 32.6952 
-8.6811 -1.0446 -49.7777 16.8329 -12.7474 53.4421 14.7329 -11.0558 -7.09555 -2.53824 35.5564 3.88672 -15.0023 -2.18267 -3.80967 -13.6104 5.48388 -23.6745 -3.82169 37.3921 4.72836 10.2698 -18.1276 8.50619 -0.688284 26.344 2.69194 0 0 0 128.763 -17.5667 115.735 -40.8098 -41.5569 -30.3005 -6.07781 -29.3773 -17.8094 0 0 0 -136.744 -7.54373 -103.157 18.9963 -36.5836 11.5851 -20.778 -23.772 14.2239 0 0 0 1.08181 -6.51415 33.1971 
-10.1074 0.1382 -49.3709 16.6035 -11.9065 56.5569 15.7938 -10.7604 -5.37264 -1.82764 33.1107 3.52495 -14.5344 3.22993 -3.54364 -12.4246 6.34924 -25.5297 -3.03229 33.5535 4.38147 10.512 -13.2912 8.50678 -1.30757 27.5309 3.21949 0 0 0 131.048 -18.6163 111.747 -28.4776 -35.0469 -20.6907 -7.66377 -31.0985 -21.5415 0 0 0 -137.135 -9.48093 -101.882 13.1653 -27.7585 5.71988 -20.1555 -23.5367 12.1429 0 0 0 1.42812 -8.07263 33.6908 
-11.4735 1.4892 -48.9766 15.0628 -10.784 59.3458 17.1057 -11.2138 -3.53691 -1.71685 32.2061 3.67234 -13.1059 8.99671 -3.53748 -11.1612 6.52497 -27.26 -2.407 29.6765 4.08886 10.2679 -8.47626 8.63472 -0.758072 27.5038 3.19952 0 0 0 132.177 -19.1624 108.766 -21.3224 -29.9977 -13.7845 -9.59665 -31.7563 -25.595 0 0 0 -136.842 -10.409 -99.9272 10.2899 -22.251 2.17352 -18.4513 -22.8938 10.1884 0 0 0 0.978208 -8.45033 34.0251 
-12.4955 2.7247 -48.713 12.4193 -9.89576 61.5907 18.733 -11.8063 -1.224 -1.63328 32.2958 3.81128 -11.3078 13.9266 -3.22448 -9.77452 6.05829 -28.1354 -2.04696 26.6572 3.80841 9.80199 -4.05576 9.03151 0.83285 26.1451 2.56723 0 0 0 131.863 -19.8178 107.226 -19.3648 -28.8845 -11.129 -10.7155 -31.5788 -28.6415 0 0 0 -134.957 -9.68223 -98.5769 10.2485 -22.6028 1.71203 -17.8157 -23.0073 8.81937 0 0 0 0.207741 -7.36627 34.2407 
-13.4146 3.7041 -48.4945 9.59174 -9.29196 63.7121 19.9895 -11.9523 0.762737 -1.56497 33.9063 3.9359 -9.77412 16.5254 -3.18457 -8.60113 5.50089 -28.2799 -1.98426 24.5488 3.55236 8.92736 0.104894 9.65042 2.93448 24.3852 1.49104 0 0 0 130.285 -20.1849 106.851 -21.2232 -30.891 -11.5595 -11.0959 -31.2389 -31.0746 0 0 0 -132.17 -9.25264 -98.6284 12.7894 -27.4099 3.95297 -17.5252 -22.9585 8.28211 0 0 0 -0.826712 -5.85095 34.3906 
-14.3437 4.2616 -48.3262 7.09953 -8.80492 66.02 20.6689 -10.9818 2.25165 -1.45569 35.913 3.81535 -8.87264 18.2176 -3.24375 -7.80664 5.17773 -27.3017 -2.16176 23.3108 3.56144 7.29373 3.98616 10.2817 5.11871 22.7987 0.604098 0 0 0 128.206 -20.4906 108.642 -27.2677 -36.6823 -15.7029 -10.5415 -30.0055 -31.5924 0 0 0 -129.494 -8.76805 -100.499 18.3343 -37.1554 9.38377 -17.5188 -22.6056 7.81015 0 0 0 -2.02231 -4.5642 34.2143 
-15.18 4.3419 -48.2007 5.22135 -8.31792 68.2512 21.183 -9.68782 2.92272 -1.45905 37.7251 3.48064 -8.41265 18.4035 -2.23601 -7.28496 4.97249 -25.3672 -2.44352 23.1732 3.73676 5.71966 5.26055 11.2872 7.05435 21.6689 0.0025825 0 0 0 126.518 -20.4433 113.213 -38.3812 -43.9761 -24.0767 -9.32885 -28.1303 -30.6625 0 0 0 -127.577 -7.03588 -103.819 28.081 -47.3983 18.4113 -17.403 -22.3281 7.81521 0 0 0 -3.06663 -3.82827 33.7282 
-16.0463 3.9728 -48.1178 3.95809 -7.8463 70.6774 21.3651 -9.45221 2.79934 -1.74884 39.8966 3.52097 -8.1714 16.0037 -1.37479 -6.90887 4.70993 -22.5891 -2.75855 24.0318 3.74919 5.02129 3.11094 11.0697 8.62448 20.6811 -0.426376 0 0 0 125.06 -19.0495 119.817 -54.3553 -50.6369 -36.6911 -7.36142 -26.715 -29.097 0 0 0 -126.207 -4.28208 -107.007 42.1249 -55.9888 30.9926 -18.1351 -22.5957 8.0237 0 0 0 -3.77628 -3.93103 32.8895 
-16.9704 3.2822 -48.0224 3.102 -7.20689 73.287 21.2531 -9.80744 2.19459 -2.34671 42.0686 3.76349 -7.73863 11.6992 -0.604458 -6.84695 4.38193 -19.903 -2.86755 25.8201 3.97865 4.41728 -0.632411 10.0674 9.83585 19.3839 -0.834082 0 0 0 123.3 -16.408 126.09 -74.047 -54.1776 -52.9551 -5.01588 -26.1261 -26.3773 0 0 0 -125.04 -0.677352 -109.865 60.733 -61.6196 47.981 -19.9615 -22.8499 7.38293 0 0 0 -4.16817 -4.32937 31.9581 
-17.9397 2.3053 -47.927 3.09987 -6.43177 75.7686 20.7623 -10.0188 1.54212 -2.65545 43.4984 3.35123 -8.01048 5.3589 0.346715 -7.05313 4.00244 -17.6815 -3.064 28.2319 4.30854 4.47177 -5.31254 9.34018 10.1889 17.8034 -0.985919 0 0 0 121.669 -13.3729 130.312 -91.6915 -53.6241 -67.8794 -2.30493 -25.6147 -23.2279 0 0 0 -124.036 3.31751 -111.992 78.1992 -63.6278 64.1976 -22.6097 -23.0896 6.10804 0 0 0 -4.1302 -4.39421 30.7663 
-19.0195 1.2104 -47.819 4.12782 -5.54206 77.89 19.6725 -9.5696 0.593864 -2.97547 44.6582 2.86937 -8.43773 -1.32722 1.36287 -7.6042 4.41195 -15.433 -3.24754 30.5676 4.53789 5.16398 -10.6729 8.80744 9.80328 17.3684 -0.588849 0 0 0 120.597 -10.1613 133.318 -103.266 -51.461 -77.3827 0.144349 -25.4966 -20.1004 0 0 0 -123.336 7.0494 -113.412 91.7453 -63.6565 76.6584 -25.3197 -23.5647 4.88918 0 0 0 -3.72285 -4.91197 28.946 
-20.0767 0.1381 -47.6733 5.77073 -4.53156 79.3083 18.2195 -8.32003 -0.612446 -3.36069 45.6296 2.43969 -8.463 -8.09474 2.07993 -8.54099 5.8714 -13.371 -3.46356 32.6462 4.7465 6.56034 -16.499 8.735 9.06445 18.4795 -0.0689555 0 0 0 120.461 -7.51565 134.731 -109.605 -50.0496 -82.6749 2.29114 -25.24 -17.0477 0 0 0 -123.396 9.32187 -114.748 98.9563 -63.2874 83.2138 -27.8652 -24.0936 3.80535 0 0 0 -3.13735 -5.89151 27.1084 
-21.1088 -0.6906 -47.4624 7.93272 -3.37749 80.3751 16.8765 -7.37876 -1.95298 -3.77564 46.0305 2.47031 -8.25196 -14.2044 1.96087 -9.68852 7.36682 -12.1963 -3.52757 34.442 4.98456 8.35419 -22.583 8.6723 8.00315 19.8795 0.265416 0 0 0 121.544 -7.18334 134.128 -107.348 -50.3822 -81.3802 3.52863 -25.6116 -14.6576 0 0 0 -124.631 8.09883 -116.399 93.7116 -64.0831 78.5599 -29.1365 -24.4615 3.23186 0 0 0 -2.39277 -6.73024 25.3993 
